<svg xmlns="http://www.w3.org/2000/svg" viewBox="0 0 105 151"><style type="text/css">  
	.st0{fill:#FFFFFF;}
	.st1{fill:#EB3300;}
	.st2{fill:#382F2D;}
	.st3{fill:none;stroke:#382F2D;stroke-width:3;stroke-linecap:round;stroke-miterlimit:10;}
</style><path class="st0" d="M74.2 150.3c-18.5 0-56.8-26.2-67.4-57.3 -5-14.5-5.1-34-0.3-53.5C8.2 32.4 14.7 8.9 26.4 5c1.7-0.6 3.6-0.9 5.8-0.9 9.5 0 23.2 5.4 35 13.9 10.6 7.6 24.7 21.1 32 42.4 14.4 42.1-1.8 83-19.3 89C78.2 150 76.3 150.3 74.2 150.3z"/><path class="st1" d="M92.6 62.7c13.3 38.8-1.7 75.6-14.9 80.1 -13.2 4.5-53.9-21.7-64.3-52s4.8-75.7 15.3-79.2S79.3 23.9 92.6 62.7z"/><path class="st2" d="M94.4 62c1.2 3.5 2.2 7 3 10.6s1.4 7.2 1.8 10.9 0.6 7.3 0.6 11 -0.2 7.4-0.6 11c-0.8 7.3-2.5 14.6-5.3 21.6 -1.4 3.5-3.2 6.9-5.4 10 -2.3 3.1-4.9 6.3-9.2 8.1 -0.3 0.1-0.5 0.2-0.8 0.3l-0.9 0.2c-0.3 0.1-0.6 0.2-0.9 0.2l-0.8 0.1c-0.6 0.1-1.1 0.1-1.7 0.1 -0.5 0-1.1 0-1.6 0 -2.1-0.1-4-0.5-5.9-1 -3.8-1-7.3-2.5-10.6-4.1 -6.7-3.4-13-7.5-18.7-12.2 -2.9-2.4-5.6-4.9-8.3-7.5s-5.2-5.4-7.5-8.4c-4.7-5.9-8.7-12.4-11.4-19.7s-3.8-14.9-4-22.4 0.5-15 1.8-22.3 3.4-14.5 6.1-21.4c1.4-3.5 3-6.9 5-10.2 1-1.6 2.2-3.3 3.6-4.8 0.7-0.8 1.5-1.5 2.5-2.2 0.5-0.3 1-0.7 1.6-1 0.3-0.1 0.6-0.3 0.9-0.4 0.3-0.1 0.6-0.2 0.9-0.2C31 7.8 33 7.9 35 8.2c2 0.2 3.9 0.7 5.7 1.2 3.7 1 7.2 2.4 10.5 4.1 6.7 3.3 12.9 7.4 18.5 12.3C80.9 35.5 89.7 48 94.4 62zM90.8 63.3c-1.2-3.3-2.5-6.5-4.1-9.7 -1.6-3.1-3.4-6.1-5.5-9 -4.1-5.7-8.9-10.9-14.4-15.3 -5.4-4.5-11.5-8.2-17.8-11 -3.2-1.4-6.5-2.6-9.7-3.4 -1.6-0.4-3.3-0.7-4.9-0.9 -1.6-0.1-3.2-0.1-4.3 0.2l-0.4 0.1c-0.1 0.1-0.2 0.1-0.3 0.2 -0.2 0-0.4 0.3-0.7 0.4 -0.5 0.4-1 0.9-1.5 1.5 -1 1.2-1.9 2.5-2.7 4 -1.7 2.9-3 6.1-4.2 9.3 -2.3 6.5-4 13.4-5.1 20.3s-1.6 13.9-1.3 20.8 1.4 13.7 3.7 19.9c1.2 3.1 2.6 6.2 4.3 9.1s3.7 5.8 5.8 8.5c4.2 5.4 9.1 10.5 14.4 15 5.3 4.5 11 8.6 17.1 11.9 3 1.6 6.2 3 9.3 4 3.1 0.9 6.4 1.5 8.6 0.6 1.2-0.5 2.5-1.3 3.6-2.3 1.2-1 2.2-2.3 3.3-3.6 2-2.7 3.7-5.7 5.1-8.8 2.8-6.3 4.7-13.1 5.7-20.1s1.1-14 0.4-21.1c-0.4-3.5-0.9-7-1.7-10.4C92.8 70 91.9 66.6 90.8 63.3z"/><path class="st2" d="M67.1 34.7c4.3 4.2 8.2 8.9 11.5 14s6.1 10.6 8.2 16.3c2.1 5.7 3.5 11.7 4.2 17.8 0.7 6 0.7 12.1-0.1 18.1h-0.8c-0.1-6-0.6-11.9-1.5-17.7 -1-5.8-2.5-11.6-4.5-17.1s-4.6-10.9-7.5-16c-3-5.1-6.3-10-9.9-14.8L67.1 34.7z"/><line class="st3" x1="92.7" y1="76" x2="84.7" y2="80"/><line class="st3" x1="88.7" y1="62" x2="80.7" y2="66"/><line class="st3" x1="75.7" y1="39" x2="67.7" y2="43"/><line class="st3" x1="82.7" y1="50" x2="74.7" y2="54"/><line class="st3" x1="93.7" y1="91" x2="85.7" y2="95"/><path class="st0" d="M35.1 51.2l1.3 2.4 14.6-7.5 -1.3-2.4 3.2-1.7 4.3 8.5c2.4 4.5 1.5 9.3-2.8 11.5 -4.8 2.5-9 0.3-11.5-4.7 -0.6-1-0.8-1.6-1-2.1l-3.8 1.9 1.4 2.6 -3.2 1.7 -4.5-8.7L35.1 51.2zM52.6 58.4c2.2-1.1 2.7-3.7 1.4-6.3l-1.1-2.3 -7.6 3.9c0.2 0.4 0.4 0.9 1.1 2.4C47.7 58.7 50.1 59.6 52.6 58.4z"/><path class="st0" d="M43.7 68.8l1.1 2.2 17.6-9.1 -1.1-2.2 2.9-1.4 2.9 5.6L46.7 74.5l1.1 2.1 -2.9 1.5 -4-7.7L43.7 68.8z"/><path class="st0" d="M49 77.1c2.6-1.4 5.4 0.1 7.2 3.4 0.7 1.4 1.2 2.9 1.4 3.7l1.1-0.6c0.8-0.4 1.4-0.9 1.6-1.5 0.5-1 0.2-2.1-0.4-3.3 -0.3-0.6-0.6-1-0.9-1.3 -0.2 0.1-0.5 0.4-0.6 0.5 -1 0.6-2.2 0.1-2.8-0.9 -0.6-1-0.2-2.2 0.9-2.9 1.7-0.8 4.4 0 6.4 3.7 1.3 2.4 1.4 4.3 0.6 6 -0.5 1.2-1.5 2.1-2.9 2.9l-6 3.1 1.1 2.1 -2.9 1.5L50 88.3l1.5-0.8c-1.5-0.6-3.2-1.9-4.2-3.8C46.1 81.3 46.3 78.5 49 77.1zM53.5 86.4l2.3-1.1c-0.2-0.9-0.6-1.9-1.1-3.1 -0.8-1.7-2.1-2.3-3.5-1.6 -1.1 0.6-1.3 1.7-0.7 2.9C51.2 84.8 52.2 85.8 53.5 86.4z"/><path class="st0" d="M48 99.9c-1-1.9-0.5-3.6 0.6-4.1 1.2-0.6 2.2-0.1 2.6 0.8 0.4 0.8 0.1 1.6-0.3 2.1 0.2 0.3 0.7 0.6 1.4 0.7 0.4 0 0.8 0.1 1.4 0.1l2.7-0.1 7.9-10.3 -0.8-1.7 2.9-1.6 3.8 7.2 -2.8 1.4 -1.1-2.1 -5.8 7.1 9.1-0.6 -1.1-2.2 2.8-1.4 3.8 7.2 -2.9 1.5 -0.8-1.7L54.1 103c-0.8 0-1.5-0.1-2.2-0.2C50 102.3 48.7 101.3 48 99.9z"/></svg>