<?xml version="1.0" encoding="utf-8"?>
<!-- Generator: Adobe Illustrator 22.0.0, SVG Export Plug-In . SVG Version: 6.00 Build 0)  -->
<svg version="1.1" id="Layer_1" xmlns="http://www.w3.org/2000/svg" xmlns:xlink="http://www.w3.org/1999/xlink" x="0px" y="0px"
	 viewBox="0 0 450 400" style="enable-background:new 0 0 450 400;" xml:space="preserve">
<style type="text/css">
	.st0{fill:#FFFFFF;}
	.st1{fill:#EB3300;}
	.st2{fill:#382F2D;}
	.st3{fill:none;stroke:#382F2D;stroke-width:3;stroke-linecap:round;stroke-miterlimit:10;}
	.st4{fill:#FFDA00;stroke:#999999;stroke-width:2;stroke-miterlimit:10;}
</style>
<g id="Football">
	<path class="st0" d="M240,240.3c-18.5,0-56.8-26.2-67.4-57.3c-5-14.5-5.1-34-0.3-53.5c1.7-7.1,8.2-30.6,19.9-34.5
		c1.7-0.6,3.6-0.9,5.8-0.9c9.5,0,23.2,5.4,35,13.9c10.6,7.6,24.7,21.1,32,42.4c14.4,42.1-1.8,83-19.3,89
		C244,240,242.1,240.3,240,240.3z"/>
	<path class="st1" d="M258.4,152.7c13.3,38.8-1.7,75.6-14.9,80.1c-13.2,4.5-53.9-21.7-64.3-52s4.8-75.7,15.3-79.2
		S245.1,113.9,258.4,152.7z"/>
	<path class="st2" d="M260.2,152c1.2,3.5,2.2,7,3,10.6c0.8,3.6,1.4,7.2,1.8,10.9c0.4,3.7,0.6,7.3,0.6,11s-0.2,7.4-0.6,11
		c-0.8,7.3-2.5,14.6-5.3,21.6c-1.4,3.5-3.2,6.9-5.4,10c-2.3,3.1-4.9,6.3-9.2,8.1c-0.3,0.1-0.5,0.2-0.8,0.3l-0.9,0.2
		c-0.3,0.1-0.6,0.2-0.9,0.2l-0.8,0.1c-0.6,0.1-1.1,0.1-1.7,0.1c-0.5,0-1.1,0-1.6,0c-2.1-0.1-4-0.5-5.9-1c-3.8-1-7.3-2.5-10.6-4.1
		c-6.7-3.4-13-7.5-18.7-12.2c-2.9-2.4-5.6-4.9-8.3-7.5s-5.2-5.4-7.5-8.4c-4.7-5.9-8.7-12.4-11.4-19.7c-2.7-7.3-3.8-14.9-4-22.4
		c-0.2-7.5,0.5-15,1.8-22.3c1.3-7.3,3.4-14.5,6.1-21.4c1.4-3.5,3-6.9,5-10.2c1-1.6,2.2-3.3,3.6-4.8c0.7-0.8,1.5-1.5,2.5-2.2
		c0.5-0.3,1-0.7,1.6-1c0.3-0.1,0.6-0.3,0.9-0.4c0.3-0.1,0.6-0.2,0.9-0.2c2.4-0.5,4.4-0.4,6.4-0.1c2,0.2,3.9,0.7,5.7,1.2
		c3.7,1,7.2,2.4,10.5,4.1c6.7,3.3,12.9,7.4,18.5,12.3C246.7,125.5,255.5,138,260.2,152z M256.6,153.3c-1.2-3.3-2.5-6.5-4.1-9.7
		c-1.6-3.1-3.4-6.1-5.5-9c-4.1-5.7-8.9-10.9-14.4-15.3c-5.4-4.5-11.5-8.2-17.8-11c-3.2-1.4-6.5-2.6-9.7-3.4
		c-1.6-0.4-3.3-0.7-4.9-0.9c-1.6-0.1-3.2-0.1-4.3,0.2l-0.4,0.1c-0.1,0.1-0.2,0.1-0.3,0.2c-0.2,0-0.4,0.3-0.7,0.4
		c-0.5,0.4-1,0.9-1.5,1.5c-1,1.2-1.9,2.5-2.7,4c-1.7,2.9-3,6.1-4.2,9.3c-2.3,6.5-4,13.4-5.1,20.3s-1.6,13.9-1.3,20.8
		s1.4,13.7,3.7,19.9c1.2,3.1,2.6,6.2,4.3,9.1s3.7,5.8,5.8,8.5c4.2,5.4,9.1,10.5,14.4,15c5.3,4.5,11,8.6,17.1,11.9c3,1.6,6.2,3,9.3,4
		c3.1,0.9,6.4,1.5,8.6,0.6c1.2-0.5,2.5-1.3,3.6-2.3c1.2-1,2.2-2.3,3.3-3.6c2-2.7,3.7-5.7,5.1-8.8c2.8-6.3,4.7-13.1,5.7-20.1
		s1.1-14,0.4-21.1c-0.4-3.5-0.9-7-1.7-10.4C258.6,160,257.7,156.6,256.6,153.3z"/>
	<path class="st2" d="M232.9,124.7c4.3,4.2,8.2,8.9,11.5,14c3.3,5.1,6.1,10.6,8.2,16.3c2.1,5.7,3.5,11.7,4.2,17.8
		c0.7,6,0.7,12.1-0.1,18.1h-0.8c-0.1-6-0.6-11.9-1.5-17.7c-1-5.8-2.5-11.6-4.5-17.1s-4.6-10.9-7.5-16c-3-5.1-6.3-10-9.9-14.8
		L232.9,124.7z"/>
	<g id="Layer_4">
		<line class="st3" x1="258.5" y1="166" x2="250.5" y2="170"/>
		<line class="st3" x1="254.5" y1="152" x2="246.5" y2="156"/>
		<line class="st3" x1="241.5" y1="129" x2="233.5" y2="133"/>
		<line class="st3" x1="248.5" y1="140" x2="240.5" y2="144"/>
		<line class="st3" x1="259.5" y1="181" x2="251.5" y2="185"/>
	</g>
	<g id="Play">
		<path class="st0" d="M193.4,178.9l2.6-0.9l-5.4-15.5l-2.6,0.9l-1.2-3.4l9-3.1c4.8-1.7,9.4-0.2,11,4.4c1.8,5.1-1,8.9-6.3,10.7
			c-1.1,0.4-1.7,0.6-2.2,0.7l1.4,4l2.8-1l1.2,3.4l-9.2,3.2L193.4,178.9z M202.9,162.6c-0.8-2.3-3.3-3.2-6-2.3l-2.4,0.8l2.8,8.1
			c0.4-0.1,1-0.3,2.5-0.8C202.6,167.5,203.8,165.2,202.9,162.6z"/>
		<path class="st0" d="M212,172.8l2.3-0.8l-6.5-18.7l-2.3,0.8l-1-3.1l6-2.1l7.6,21.8l2.2-0.8l1.1,3.1l-8.2,2.9L212,172.8z"/>
		<path class="st0" d="M221,168.8c-1-2.8,0.9-5.3,4.4-6.6c1.5-0.5,3-0.8,3.9-0.9l-0.4-1.2c-0.3-0.9-0.7-1.5-1.3-1.8
			c-0.9-0.6-2-0.5-3.3-0.1c-0.6,0.2-1.1,0.5-1.4,0.7c0.1,0.2,0.3,0.5,0.4,0.7c0.4,1.1-0.2,2.2-1.3,2.6c-1.1,0.4-2.2-0.1-2.7-1.3
			c-0.6-1.8,0.6-4.4,4.6-5.8c2.6-0.9,4.5-0.8,6,0.2c1.1,0.7,1.9,1.8,2.5,3.3l2.2,6.4l2.2-0.8l1.1,3.1l-5.7,2l-0.6-1.6
			c-0.8,1.4-2.3,2.9-4.3,3.6C224.7,172.2,222,171.6,221,168.8z M230.8,165.6l-0.8-2.4c-0.9,0.1-2,0.3-3.2,0.7
			c-1.8,0.6-2.6,1.8-2.1,3.2c0.4,1.2,1.5,1.5,2.8,1.1C228.9,167.7,230,166.8,230.8,165.6z"/>
		<path class="st0" d="M243.4,173c-2,0.7-3.6,0-4-1.2c-0.4-1.3,0.2-2.2,1.2-2.5c0.9-0.3,1.6,0.1,2,0.6c0.3-0.2,0.7-0.6,0.9-1.3
			c0.1-0.4,0.2-0.8,0.3-1.4l0.3-2.7l-9.1-9.3l-1.8,0.6l-1.2-3.1l7.7-2.7l1,3l-2.2,0.8l6.2,6.7l0.7-9.1l-2.3,0.8l-1-3l7.7-2.7
			l1.1,3.1l-1.8,0.6l-1.8,17.2c-0.1,0.8-0.3,1.5-0.5,2.2C246,171.3,244.9,172.5,243.4,173z"/>
	</g>
</g>
<g id="Holder">
	<path class="st4" d="M210.5,277h-10v-65c0-2.8,2.2-5,5-5l0,0c2.8,0,5,2.2,5,5V277z"/>
	<path class="st4" d="M250.5,277h-10v-45c0-2.8,2.2-5,5-5l0,0c2.8,0,5,2.2,5,5V277z"/>
	<rect x="200.5" y="247" class="st4" width="50" height="10"/>
</g>
</svg>
