<svg xmlns="http://www.w3.org/2000/svg" xmlns:xlink="http://www.w3.org/1999/xlink" viewBox="0 0 800 770"><defs><style>.cls-1{fill:#ffc;}.cls-2{fill:url(#radial-gradient);}.cls-3{fill:#ee301c;}</style><radialGradient id="radial-gradient" cx="399.5" cy="397.5" r="369.3" gradientUnits="userSpaceOnUse"><stop offset="0" stop-color="#fff6c4"/><stop offset="0.23" stop-color="#fff6c2"/><stop offset="0.36" stop-color="#fff4b9"/><stop offset="0.47" stop-color="#fff2ab"/><stop offset="0.56" stop-color="#ffee97"/><stop offset="0.65" stop-color="#ffea7e"/><stop offset="0.72" stop-color="#ffe45e"/><stop offset="0.8" stop-color="#ffde38"/><stop offset="0.87" stop-color="#ffd60d"/><stop offset="0.89" stop-color="#ffd400"/></radialGradient></defs><title>Front_Spiral</title><g id="Layer_2" data-name="Layer 2"><path class="cls-1" d="M646.2,92.9,622.8,217.5l126.7,3-72,104.4L792,379.2l-108.2,66,82.5,96.2L640.6,557.7l36.3,121.5L555.4,642.9,539.1,768.6l-96.2-82.5-66,108.2L322.6,679.8l-104.3,72-3.1-126.7L90.6,648.4l48.8-117L16.1,502.1,108.2,415,7.5,338.1,127.1,296,66.3,184.7,192.7,195,182.5,68.6l111.2,60.7L335.8,9.7l77,100.8,87-92.2,29.3,123.4Z"/></g><g id="Layer_1" data-name="Layer 1"><polygon class="cls-2" points="299.7 654.2 194.9 711.4 204.6 592.4 85.6 602.1 142.8 497.3 30.2 457.7 125.1 385.3 38.3 303.3 154.4 275.7 108.5 165.5 225.8 187.5 228.7 68.2 326.9 136 378 28.2 440.1 130.1 530.7 52.4 546 170.8 660.4 136.6 626.2 251 744.6 266.3 666.9 356.9 768.8 419 661 470.1 728.8 568.3 609.5 571.2 631.5 688.5 521.3 642.6 493.7 758.7 411.7 671.9 339.3 766.8 299.7 654.2"/><path class="cls-3" d="M379.2,51.3,424,124.8l13.5,22.1L457.1,130l65.3-56,11.1,85.3,3.3,25.7,24.8-7.4L644,153l-24.6,82.4L612,260.2l25.7,3.3L723,274.6l-56,65.3-16.9,19.6L672.2,373l73.5,44.8-77.8,36.9-23.3,11L659.3,487l48.9,70.8-86.1,2.1-25.8.6,4.7,25.4,15.9,84.6-79.4-33.1-23.9-9.9-6,25.1-19.9,83.7-59.1-62.5L410.9,655l-15.7,20.5-52.3,68.4-28.5-81.1-8.6-24.5-22.7,12.4L207.6,692l6.9-85.8,2.1-25.8-25.8,2.1L105,589.4l41.3-75.5,12.4-22.7-24.5-8.6L53.1,454.1l68.4-52.3L142,386.1l-18.8-17.7L60.7,309.3l83.7-19.9,25.1-6-9.9-23.9-33.1-79.4L211.1,196l25.4,4.7.6-25.8,2.1-86.1L310,137.7l21.3,14.7,11-23.3,36.9-77.8M376.8,5.1,322.5,119.6l-104.4-72-3,126.7L90.5,151l48.8,117L15.9,297.3l92.2,87.1L7.3,461.3l119.6,42.1L66.2,614.7l126.4-10.3L182.3,730.8l111.3-60.7,42.1,119.6,76.9-100.8,87.1,92.2L529,657.7l117,48.8L622.7,581.9l126.7-3-72-104.4,114.5-54.3-108.2-66L766.2,258,640.5,241.7l36.3-121.5L555.3,156.5,539,30.8l-96.2,82.5L376.8,5.1Z"/></g>
<g id="image"><image x="100" width="600" height="600" xlink:href="Front_Graphic.png"/></g></svg>